<svg xmlns="http://www.w3.org/2000/svg" viewBox="0 0 832.48 702.05"><defs><style>.cls-1{fill:purple;}</style></defs><title>Recurso 1</title><g id="Capa_2" data-name="Capa 2"><g id="Capa_1-2" data-name="Capa 1"><path class="cls-1" d="M716.36,257.23C705.31,266.57,694.49,276,683.3,285c-4.14,3.33-5.36,7-5.36,12.1q.19,198.18.1,396.37V702H794.6c.13-2.69.31-4.77.31-6.85q0-177.71-.19-355.4A16.84,16.84,0,0,0,790.06,329c-23.17-23.17-46.67-46-70.1-68.9C719,259.19,718,258.48,716.36,257.23Zm-74.94,63.92c-14.56,12-28.22,22.93-41.61,34.24-23.22,19.62-46.19,39.53-69.45,59.11-4,3.35-5.49,6.84-5.49,12.05q.24,133.89.13,267.79c0,2.52.28,5,.43,7.62h116Zm-396,3.32c-7,3.45-13.14,6.89-19.62,9.63-5.9,2.5-7.63,6.3-7.62,12.7q.32,172.86.15,345.73V702H335c.17-2.87.42-5.18.42-7.48q0-101.21-.14-202.4a27.23,27.23,0,0,0-3.51-12.51c-23.47-42.33-47.21-84.51-70.83-126.76C255.84,343.68,250.88,334.46,245.4,324.47ZM65.07,702.05H181.6v-344c-1.94.83-3.37,1.33-4.69,2C142,378.63,107.17,397.33,72.13,415.65c-5.39,2.82-7.23,5.94-7.22,12.06q.34,132.68.16,265.37Zm306.63-.17H488.07V450.93c-15.37,12.69-30.2,24.7-44.78,37-22.62,19.09-45.18,38.27-67.44,57.78-2.46,2.15-3.93,6.69-4,10.14-.32,26.77-.18,53.56-.18,80.33Z"/><path class="cls-1" d="M832.48,3.15C827.23,25.05,822,47,816.7,68.84c-14.07,57.7-28.2,115.38-42.73,174.79l-55.51-53.48c-17.53,15.17-35.05,30.44-52.7,45.58Q610,283.59,554.09,331.34q-23.88,20.43-47.82,40.8-27.78,23.75-55.55,47.52-25.68,22-51.41,43.87c-3.17,2.68-6.76,4.86-10.4,7.44L264,258.48,58.51,367.56C38.91,333.22,19.64,299.47,0,265.05L310.11,100.34C347,162.92,383.65,225.22,420.57,287.91c1.46-1,2.58-1.62,3.54-2.44q30.45-26.09,60.86-52.22,30.72-26.37,61.46-52.73c16.31-14,32.61-28,49-41.81,12.19-10.29,24.55-20.36,37.93-31.44L580.81,56.76C593.32,54,604.4,51.51,615.46,49Q712.54,27.2,809.61,5.36c7.64-1.72,15.25-3.57,22.87-5.36Z"/><path class="cls-1" d="M716.36,257.23c1.59,1.25,2.68,2,3.6,2.86,23.43,22.91,46.93,45.73,70.1,68.9a16.84,16.84,0,0,1,4.66,10.71q.36,177.71.19,355.4c0,2.08-.18,4.16-.31,6.85H678v-8.46q0-198.19-.1-396.37c0-5.14,1.22-8.77,5.36-12.1C694.49,276,705.31,266.57,716.36,257.23Z"/><path class="cls-1" d="M641.42,321.15V702h-116c-.15-2.58-.43-5.1-.43-7.62q0-133.89-.13-267.79c0-5.21,1.51-8.7,5.49-12.05,23.26-19.58,46.23-39.49,69.45-59.11C613.2,344.08,626.86,333.11,641.42,321.15Z"/><path class="cls-1" d="M245.4,324.47c5.48,10,10.44,19.21,15.56,28.35,23.62,42.25,47.36,84.43,70.83,126.76a27.23,27.23,0,0,1,3.51,12.51q.33,101.19.14,202.4c0,2.3-.25,4.61-.42,7.48H218.31v-9.44q0-172.87-.15-345.73c0-6.4,1.72-10.2,7.62-12.7C232.26,331.36,238.44,327.92,245.4,324.47Z"/><path class="cls-1" d="M65.07,702.05v-9q0-132.69-.16-265.37c0-6.12,1.83-9.24,7.22-12.06,35-18.32,69.87-37,104.78-55.57,1.32-.7,2.75-1.2,4.69-2v344Z"/><path class="cls-1" d="M371.7,701.88V636.19c0-26.77-.14-53.56.18-80.33,0-3.45,1.51-8,4-10.14,22.26-19.51,44.82-38.69,67.44-57.78,14.58-12.31,29.41-24.32,44.78-37v251Z"/></g></g></svg>